<svg width="96" height="74" viewBox="0 0 96 74" xmlns="http://www.w3.org/2000/svg"><title>Min Vid Dark Copy</title>
<g fill="#000" fill-rule="evenodd">
<path d="M0 8.007C0 3.585 3.588 0 8 0h80c4.419 0 8 3.582 8 8.007v57.986C96 70.415 92.412 74 88 74H8c-4.419 0-8-3.582-8-8.007V8.007zM7 26A5 5 0 0 1 12.006 21h71.988A5 5 0 0 1 89 26v36a5 5 0 0 1-5.006 5H12.006A5 5 0 0 1 7 62V26z"/>
</g>
<g fill="#F00" fill-rule="evenodd">

<rect fill="#ffffff" style="color: rgb(0, 0, 0);" stroke-dashoffset="" fill-rule="evenodd" id="svg_7" x="39.49315094947815" y="37.260273933410645" width="19" height="16" class=""/>
<path d="M31.17806887626648,34.57233810424805 A3.993000030517578,3.993000030517578 0 0 1 35.17606997489929,30.575342178344727 h27.003999710083008 A4,4 0 0 1 66.17810320854187,34.57233810424805 v20.006000518798828 A3.993000030517578,3.993000030517578 0 0 1 62.180113554000854,58.57533645629883 H35.17606997489929 A4,4 0 0 1 31.17806887626648,54.57833480834961 V34.57233810424805 zm11.5,4.369999885559082 c0,-0.3089999854564667 0.22200000286102295,-0.44999998807907104 0.49900001287460327,-0.3160000145435333 l12.793999671936035,6.206999778747559 c0.2750000059604645,0.1340000033378601 0.2770000100135803,0.3499999940395355 0,0.48399999737739563 L43.17709231376648,51.52533721923828 c-0.2759999930858612,0.13300000131130219 -0.49900001287460327,-0.00800000037997961 -0.49900001287460327,-0.3160000145435333 V38.94233703613281 z"/>
</g></svg>